<?xml version="1.0" encoding="UTF-8"?><svg id="Camada_1" xmlns="http://www.w3.org/2000/svg" viewBox="0 0 1617 855"><defs><style>.cls-1{fill:#fff;}</style></defs><g><path class="cls-1" d="M197.71,246.22c-15.74-37.5-23.61-52.32-53.71-55.56v-4.63h188.9v4.63c-47.23,3.24-39.82,25.93-27.32,55.56l59.73,140.29,52.32-122.7c18.52-42.6,28.71-69.91-31.02-73.15v-4.63h106.03v4.63c-38.89,3.24-50.47,28.7-68.99,72.23l-106.49,251.41h-5.56L197.71,246.22Z"/><path class="cls-1" d="M654.14,423.17c-3.72,53.05-35.36,96.32-112.14,96.32s-130.76-48.86-130.76-120.52c0-79.57,51.65-120.52,126.57-120.52,83.76,0,115.4,44.67,115.4,114.93h-136.81v5.58c0,60.03,2.79,108.42,56.31,108.42,43.27,0,73.06-34.9,76.78-84.22h4.65Zm-137.74-34.9h36.76c0-66.08,.47-104.7-15.35-104.7s-20.94,33.51-21.41,104.7Z"/><path class="cls-1" d="M898.09,332.44c0,27.92-18.61,58.17-51.18,58.17-19.54,0-40.97-8.92-42.91-28.28-3.04-30.4,20.11-46.17,20.11-58.27,0-8.84-4.19-10.7-9.31-10.7-17.68,0-32.57,37.23-40.02,82.83v94.46c0,32.11,0,39.55,21.87,39.55v4.65h-138.67v-4.65c16.75,0,16.75-7.44,16.75-39.55v-143.32c0-20.94,0-36.76-20.94-39.55v-4.65h119.59l-.47,79.57c9.31-43.74,21.4-84.22,69.33-84.22,31.64,0,55.84,17.68,55.84,53.98Z"/><path class="cls-1" d="M900.52,514.91v-4.65c16.75-.02,16.74-7.46,16.71-39.57l-.14-143.32c-.02-20.94-.04-36.76-20.98-39.53v-4.65s120.98-.12,120.98-.12l.19,187.52c.03,32.11,.04,39.55,17.72,39.53v4.65s-134.47,.13-134.47,.13Zm9.95-294.56c-.03-30.24,25.07-54.93,56.25-54.96,32.57-.03,56.79,23.68,56.83,54.85,.03,30.71-24.14,55.86-56.72,55.9-31.18,.03-56.33-25.07-56.36-55.78Z"/><path class="cls-1" d="M1150.82,287.76v166.59c0,9.77,.47,19.55,2.79,23.73,1.86,3.72,5.58,9.77,15.82,9.77,11.17,0,15.35-9.31,16.75-13.5,1.4-3.72,2.33-10.23,2.33-20.01v-39.55h4.65v39.55c0,9.77-.47,29.78-15.82,44.21-20.94,20.01-49.32,20.94-60.03,20.94-28.85,0-44.21-6.52-53.05-19.54-8.38-12.1-11.63-29.78-11.63-44.67v-167.52h-29.78v-4.65h21.4c53.51,0,92.6-37.23,101.91-85.62h4.65v85.62l42.35-1.4v7.45l-42.35-1.4Z"/><path class="cls-1" d="M1473,423.64v28.39c0,21.4-2.33,34.43-14.43,47-12.56,13.03-34.43,20.48-58.17,20.48-26.06,0-39.09-9.77-47.46-21.87-7.44-10.24-10.7-20.94-11.63-34.43-4.65,18.15-20.94,56.31-72.59,56.31-20.01,0-36.3-6.05-47.46-16.75-12.1-11.63-17.22-27.45-17.22-44.21,0-20.47,6.98-33.5,16.75-42.34,23.73-21.87,73.06-28.39,120.05-37.69v-53.05c0-25.13-1.4-41.41-24.19-41.41-6.98,0-10.7,1.4-13.96,4.19-3.26,2.79-5.12,6.05-5.12,13.03,0,10.23,30.05,19.47,20.01,51.65-5.77,18.49-29.78,29.78-53.51,29.78-30.25,0-44.67-21.41-44.67-44.21,0-37.69,45.14-60.03,105.16-60.03,70.73,0,114,24.66,114,84.22v89.34c0,10.23,.93,18.61,2.79,22.8,2.33,5.58,6.05,9.31,12.1,9.31s9.77-2.79,12.56-9.31c1.86-4.65,2.33-12.56,2.33-22.8v-28.39h4.65Zm-132.15,27.92v-68.4c-6.51,1.4-13.49,4.19-20.01,9.77-12.56,10.24-16.75,25.13-16.75,42.81,0,12.56,1.4,24.66,4.19,31.64,2.79,6.98,7.44,9.77,12.1,9.77,11.17,0,16.75-12.1,20.47-25.59Z"/><path class="cls-1" d="M1272.08,234.97h0c0,14.94,12.11,27.05,27.05,27.05h72.41l-54.68-47.48c-17.51-15.21-44.79-2.77-44.79,20.43Z"/></g><g><polygon class="cls-1" points="933.63 594.31 933.63 594.31 933.63 594.31 933.63 594.31"/><path class="cls-1" d="M1207.32,629.82c-45.31,16.6-78.95,17.26-97.52,7.73,8.24-25.79,3.48-43.23-13.11-43.23h0c-9.33,0-22.2,6.96-34.47,16.42-.42-.25-.9-.31-1.32,0-32.92,22.77-93.48,63.52-127.51,73.21-3.81,1.08-8.88,.15-5.23-10.4l18.03-52.26c6.74-19.52,.58-26.96-12.55-26.97-5.23,0-8.96,1.45-12.83,4.88-13.56,12.03-40.22,49.45-58.4,78.6l21.02-80.34c.99-3.79-9.36-4-11.44-1.58-2.86,3.35-7,8.56-11.55,14.62-.23,.01-.45,.08-.67,.23-37.01,25.92-83.52,54.37-118.66,69.62-12.34,5.36-15.93,.33-12.57-12.83l17.89-70.06c.97-3.79-9.31-4.04-11.44-1.58-2.89,3.34-6.98,8.57-11.48,14.66-.15,.04-.29,.09-.44,.19-25.92,18.16-56.4,29.97-78.17,29.97-13.4,0-24.03-4.11-29.36-11.92,13.01-18.39,23.98-38.6,28.79-57.04,1.48-5.68-4.2-9.39-13.57-9.39-10.58,0-15.3,3.37-17.58,7.56-9.23,16.96-8.52,46.53-1.96,58.64-15.49,21.9-33.67,40.87-47.16,50.59-6.5,4.51-10.73,4.37-7.05-5.32l22.02-57.95c5.8-15.26,2.42-21.54-11.01-21.54-11.35,0-14.12,2.98-17.14,10.19-1.26,3.02-2.44,6.04-3.56,9.04-6.97,4.44-15.82,9.36-26.23,13.66-24.39,10.08-62.47,18.64-106.11,2.79-1.03-.37-2.17,.14-2.55,1.16h0c-.39,1.04,.14,2.2,1.18,2.58,17.92,6.51,34.93,9.02,50.49,9.02,23.43,0,43.58-5.68,58.65-11.92,8.6-3.56,16.12-7.5,22.42-11.25-12.54,36.98-12.94,69.93,4.09,70.04,12.3-.21,40.96-26.01,64.09-57.81,6.46,8.38,17.8,12.45,31.54,12.45,20.4,0,48.2-10.09,72.78-25.68-11.19,15.82-22.8,34.15-24.06,41.26-4.91,27.7,17.42,29.77,27.03,29.78,7.18,.02,12.93-2.13,21.87-6,33.02-14.33,75.99-40.23,111.73-64.74-11.33,15.72-22.97,33.82-23.63,40.96-2.45,26.37,16.68,29.78,24.77,29.78,2.37,0,4.34-.49,6.98-4.94,13.89-23.38,39.69-60.97,56.58-78.69-15.81,41.23-17.45,83.63,1.88,83.63,26.07,0,84.9-37.19,124.67-64.07-9.91,10.03-17.62,20.4-19.81,27.62-10.09,33.23,20.31,36.45,32.54,36.45,21.13,0,40.92-21.87,50.4-48.65,19.88,9.77,54.62,8.8,99.9-7.8,1.71-.63,.52-3.99-1.23-3.35Zm-590.33-53.86c5.09-11.45,23.91-11.95,21.25,1.33-4.5,22.48-23.91,46.49-23.91,46.49,0,0-7.97-23.91,2.66-47.82Zm451.66,106.01c-9.88,0-13.45-16.12-5.09-39.99,6.5-18.63,17.97-33.89,28.19-39.91-1.28,2.77-1.92,6.22-1.92,9.85,0,11.81,5.47,21.2,15.64,27.32-8.45,24.23-25.25,42.73-36.82,42.73Zm37.99-46.25c-8.66-5.56-13.23-13.75-13.23-23.8,0-7.42,2.78-12.6,7.15-12.6,9.39,.17,12.83,14.64,6.08,36.4Z"/></g></svg>